<svg width="129px" height="128px" viewBox="0 0 129 128" version="1.1" xmlns="http://www.w3.org/2000/svg" xmlns:xlink="http://www.w3.org/1999/xlink">
    <title>编组 5</title>
    <defs>
        <polygon id="path-1" points="0 0.0328314231 72.5601616 0.0328314231 72.5601616 82.0785577 0 82.0785577"></polygon>
    </defs>
    <g id="页面-1" stroke="none" stroke-width="1" fill="none" fill-rule="evenodd">
        <g id="授权店铺tiktok备份-3" transform="translate(-23.000000, -622.000000)">
            <g id="编组-12备份" transform="translate(22.000000, 622.000000)">
                <g id="编组-5" transform="translate(0.918221, 0.000000)">
                    <rect id="矩形" fill="#41AF46" x="0.918220947" y="0" width="128" height="128" rx="32"></rect>
                    <g id="编组" transform="translate(28.505448, 20.588714)">
                        <g transform="translate(0.000000, 0.161052)">
                            <mask id="mask-2" fill="white">
                                <use xlink:href="#path-1"></use>
                            </mask>
                            <g id="Clip-2"></g>
                            <path d="M23.0180874,15.8631269 C25.1249645,16.0441654 27.140449,16.3887789 29.0528988,16.8756231 C31.6594267,17.5390429 34.0787067,18.4715951 36.2800808,19.6173962 C38.4814549,18.4715951 40.9009289,17.5390429 43.5074568,16.8756231 C45.4197125,16.3887789 47.4353911,16.0441654 49.5420741,15.8631269 C49.0856941,13.0105574 47.7313008,10.4577784 45.7779088,8.50419235 C43.3473745,6.07385208 39.989333,4.57043679 36.2800808,4.57043679 C32.5708285,4.57043679 29.2127871,6.07385208 26.7822528,8.50419235 C24.8290548,10.4577784 23.4746615,13.0105574 23.0180874,15.8631269 M54.1052927,15.7164333 L62.1901276,15.7164333 L69.766774,15.7164333 L70.0079647,15.7164333 L72.5601616,15.7164333 L72.5601616,18.2688242 L72.5601616,18.5100148 L72.5601616,26.828861 L72.5601616,58.6427428 C72.5601616,65.0902755 69.9243338,70.9498695 65.6779812,75.1962221 C61.4316286,79.4427688 55.5718405,82.0785965 49.1245019,82.0785965 L36.2800808,82.0785965 L2.55239089,82.0785965 L0,82.0785965 L0,79.5262056 L0,20.3138027 L0,19.4633291 L0,18.5100148 L0,18.2688242 L0,15.7164333 L2.55239089,15.7164333 L2.79358155,15.7164333 L5.78430687,15.7164333 L18.4550629,15.7164333 C18.9688786,11.6683887 20.829714,8.0404388 23.5740096,5.29614319 C26.8261056,2.04424118 31.3183058,0.0328314231 36.2800808,0.0328314231 C41.2418557,0.0328314231 45.73425,2.04424118 48.986152,5.29614319 C51.7304476,8.0404388 53.591477,11.6683887 54.1052927,15.7164333" id="Fill-1" fill="#414141" mask="url(#mask-2)"></path>
                        </g>
                        <path d="M52.9918184,18.4298573 L69.7666964,18.4298573 C69.8994192,18.4298573 70.0078871,18.5383251 70.0078871,18.6710479 L70.0078871,58.8037759 C70.0078871,70.2897289 60.6103773,79.6872387 49.1244243,79.6872387 L36.2800032,79.6872387 L36.2800032,22.6837774 C40.7966523,20.0611443 46.4804469,18.4298573 52.9918184,18.4298573" id="Fill-3" fill="#4F9D4E"></path>
                        <path d="M19.5683043,18.4298573 L2.79362036,18.4298573 C2.66089758,18.4298573 2.5524297,18.5383251 2.5524297,18.6710479 L2.5524297,79.6872387 L36.2801196,79.6872387 L36.2801196,22.6837774 C31.7634704,20.0611443 26.0796759,18.4298573 19.5683043,18.4298573" id="Fill-5" fill="#60BB55"></path>
                        <path d="M62.4580569,74.8441769 C58.8343759,77.8643962 54.1822874,79.6871999 49.1244631,79.6871999 L36.280042,79.6871999 L36.280042,57.5929328 C47.88009,57.6468757 57.8698073,64.6957357 62.4580569,74.8441769" id="Fill-7" fill="#60BB55"></path>
                        <path d="M8.12651456,79.6871999 L36.280042,79.6871999 L36.280042,57.5929328 C36.235413,57.5927388 36.191172,57.5909924 36.146349,57.5909924 C22.7190343,57.5909924 11.42518,66.9648294 8.12651456,79.6871999" id="Fill-9" fill="#84C567"></path>
                        <path d="M38.2804691,53.753034 C37.481998,52.6708777 36.8079061,51.4909257 36.2801196,50.2345222 C35.7620351,51.467641 35.1030781,52.6272189 34.3236229,53.6930759 C34.9185469,53.5875186 35.5274417,53.5327996 36.1464266,53.5327996 C36.8736853,53.5327996 37.5871673,53.6086689 38.2804691,53.753034 M20.5404404,26.5642692 C25.252487,26.5642692 29.5188256,28.4745846 32.6071526,31.5627175 C34.16063,33.1161949 35.4158692,34.9681045 36.2801196,37.0247254 C37.1443699,34.9681045 38.3994151,33.1161949 39.9528925,31.5627175 C43.0412195,28.4745846 47.3075581,26.5642692 52.0197987,26.5642692 C56.7320393,26.5642692 60.998378,28.4745846 64.086511,31.5627175 C67.174838,34.6512386 69.0851533,38.9173832 69.0851533,43.6296238 C69.0851533,48.3418644 67.174838,52.608009 64.086511,55.6965301 C60.998378,58.784663 56.7320393,60.6947844 52.0197987,60.6947844 C49.5646215,60.6947844 47.2307186,60.1761177 45.1211251,59.2425954 L44.2892793,60.0744412 L37.5499117,66.8138087 L36.1464266,68.2172939 L34.7429415,66.8138087 L28.003574,60.0744412 L27.2526425,59.3235097 C25.1925289,60.2061938 22.9234351,60.6947844 20.5404404,60.6947844 C15.8281998,60.6947844 11.5618612,58.784663 8.47353417,55.6965301 C5.3854012,52.608203 3.47508583,48.3418644 3.47508583,43.6296238 C3.47508583,38.9173832 5.3854012,34.6510446 8.47353417,31.5627175 C11.5618612,28.4745846 15.8281998,26.5642692 20.5404404,26.5642692" id="Fill-11" fill="#414141"></path>
                        <path d="M52.0197405,29.1166989 C60.0351095,29.1166989 66.5327042,35.6142937 66.5327042,43.6294686 C66.5327042,51.6448375 60.0351095,58.1424323 52.0197405,58.1424323 C44.0045656,58.1424323 37.5067768,51.6448375 37.5067768,43.6294686 C37.5067768,35.6142937 44.0045656,29.1166989 52.0197405,29.1166989" id="Fill-13" fill="#FFFFFF"></path>
                        <path d="M20.5403822,29.1166989 C28.5555571,29.1166989 35.0531519,35.6142937 35.0531519,43.6294686 C35.0531519,51.6448375 28.5555571,58.1424323 20.5403822,58.1424323 C12.5250133,58.1424323 6.02741851,51.6448375 6.02741851,43.6294686 C6.02741851,35.6142937 12.5250133,29.1166989 20.5403822,29.1166989" id="Fill-15" fill="#FFFFFF"></path>
                        <path d="M22.1356168,34.4576069 C27.2010087,34.4576069 31.3076531,38.5642514 31.3076531,43.6296432 C31.3076531,48.695035 27.2010087,52.8014854 22.1356168,52.8014854 C17.070225,52.8014854 12.9635805,48.695035 12.9635805,43.6296432 C12.9635805,41.9659516 13.4065719,40.4056828 14.1809821,39.0604095 C14.779981,40.8374199 16.4601659,42.1173021 18.4391711,42.1173021 C20.9201556,42.1173021 22.9317594,40.1056983 22.9317594,37.6247138 C22.9317594,36.3958639 22.4381238,35.2822733 21.6384885,34.4711897 C21.8032278,34.4622639 21.9689372,34.4576069 22.1356168,34.4576069" id="Fill-17" fill="#414141"></path>
                        <path d="M50.1056802,34.4576069 C55.1710721,34.4576069 59.2777165,38.5642514 59.2777165,43.6296432 C59.2777165,48.695035 55.1710721,52.8014854 50.1056802,52.8014854 C45.0402884,52.8014854 40.9336439,48.695035 40.9336439,43.6296432 C40.9336439,41.9659516 41.3766353,40.4056828 42.1510455,39.0604095 C42.7500444,40.8374199 44.4302293,42.1173021 46.4092345,42.1173021 C48.890219,42.1173021 50.9018228,40.1056983 50.9018228,37.6247138 C50.9018228,36.3958639 50.4081872,35.2822733 49.6083579,34.4711897 C49.7730971,34.4622639 49.9390006,34.4576069 50.1056802,34.4576069" id="Fill-19" fill="#414141"></path>
                        <path d="M36.1464266,55.5180529 C38.7981656,55.5180529 41.1906682,56.7286631 42.8856001,58.6709949 L36.1464266,65.4101684 L36.1464266,55.5180529 Z" id="Fill-21" fill="#FFC868"></path>
                        <path d="M36.1464266,65.4101684 L29.4072531,58.6709949 C31.102185,56.7286631 33.4946877,55.5180529 36.1464266,55.5180529 L36.1464266,65.4101684 Z" id="Fill-23" fill="#FCF5AE"></path>
                    </g>
                </g>
            </g>
        </g>
    </g>
</svg>