<svg id="Layer_1" data-name="Layer 1" xmlns="http://www.w3.org/2000/svg" viewBox="0 0 217.45 84.36"><defs><style>.cls-1{fill:#268acb;}.cls-1,.cls-2,.cls-3,.cls-4,.cls-5,.cls-6,.cls-7{fill-rule:evenodd;}.cls-2{fill:#fff;}.cls-3{fill:#8fc43f;}.cls-4{fill:#1eac4b;}.cls-5{fill:#df3286;}.cls-6{fill:#ef9720;}.cls-7{fill:#e41f29;}</style></defs><path class="cls-1" d="M52.26,37,74.72,35.8a1.26,1.26,0,0,1,1.36,1.36,56.14,56.14,0,0,0,.43,23.66c.16.73-.61,1.36-1.36,1.36H51.57a1.25,1.25,0,0,1-1.07-1.6c1.79-6.24,2.26-13.25.6-22.21A1.13,1.13,0,0,1,52.26,37Z"/><path class="cls-2" d="M57.72,40.31a1,1,0,1,1-1,1,1,1,0,0,1,1-1ZM67.9,44.68a1,1,0,0,1,1.9,0v0h0v0h0a6.58,6.58,0,1,1-13.15,0h0v0a1,1,0,0,1,1.9,0v0h0a4.67,4.67,0,0,0,9.33,0h0v0h0v0Zm.84-4.37a1,1,0,1,1-1,1,1,1,0,0,1,1-1Z"/><path class="cls-3" d="M61.49,35.53l-1-8.58.48-.5a.67.67,0,0,0,.06.12c.34-.17,1.23-.66,1.84-1a1.11,1.11,0,0,0,1.65,0l2.13.46.58.37s.84,7.15,1.06,9.09l-6.73.37,0-.28Zm.8-11.6-.73-1.24a.77.77,0,0,1,.49-.06c.18.08.39.19.51.14a6.71,6.71,0,0,1,.68-.53.86.86,0,0,1,.22-.06,2.36,2.36,0,0,1,.65.29c.13.13.2.19.33.13a5,5,0,0,1,.64-.36,1,1,0,0,1,.23,0l-.39,1.51-.48.28a1.12,1.12,0,0,0-.79-.33,1.1,1.1,0,0,0-.81.36l-.55-.12Z"/><path class="cls-4" d="M60.66,23.58a6.79,6.79,0,0,0,.35,3c.34-.17,1.23-.66,1.84-1a1.11,1.11,0,0,0,1.65,0l2.15.47a6.7,6.7,0,0,0-.36-3c-.34.17-1.24.68-1.85,1a1.12,1.12,0,0,0-.79-.33,1.1,1.1,0,0,0-.81.36l-2.18-.47Z"/><path class="cls-5" d="M66,28.79l3,.67.1,0h0l-.1,0-1.35,6-3.83.21,1.44-6.43a.62.62,0,0,1,.75-.47Zm6.8,1.52,2.77.62a.64.64,0,0,1,.47.75l-.76,3.37-3.83.22,1.1-4.94.25,0Z"/><path class="cls-6" d="M69,29.46l.1,0c-.51-.38-1.82-1.24-1.5-2a1.19,1.19,0,0,1,2-.26,3.51,3.51,0,0,1,.94,2.08,1.1,1.1,0,0,1,.66,0l.33.17s1.4-1.8,2.35-1.44,1.22,1.1,1,1.43a3.41,3.41,0,0,1-2.25.82l-1.1,4.94-3.81.21,1.35-6Zm.79-.37s-.31-1.21-.74-1.42-.69-.13-.81.12.7.82,1.55,1.3Zm4.15-.27s.3.24.19.43a3.58,3.58,0,0,1-1.4.42h-.5a8.29,8.29,0,0,1,1-.8c.35-.2.58-.14.71,0Z"/><path class="cls-6" d="M51.54,32.41l3.58-.87.12,0h0l-.12,0,1.1,4.57-4.5.25-.73-3a.74.74,0,0,1,.55-.9Zm8.12-2,3.3-.8a.76.76,0,0,1,.91.55l1.3,5.41-4.49.25L59.41,30.6l.25-.15Z"/><path class="cls-7" d="M55.12,31.54l.12,0c-.75-.13-2.62-.37-2.66-1.32a1.42,1.42,0,0,1,2-1.33,4.2,4.2,0,0,1,2.11,1.74,1.23,1.23,0,0,1,.72-.32h.44s.56-2.68,1.77-2.8,1.89.55,1.77,1a4.07,4.07,0,0,1-2,2.08l1.27,5.26-4.46.25-1.1-4.57Zm.65-.81s-1-1.14-1.55-1.14-.81.23-.81.56,1.19.51,2.36.58Zm4.31-2.49s.46.1.44.37-1.05,1.05-1.29,1.18-.54.26-.54.26a10.34,10.34,0,0,1,.66-1.39c.27-.4.54-.45.73-.42Z"/><path class="cls-1" d="M89.69,35.64a8.11,8.11,0,1,1-8.1,8.11V31.18a5.46,5.46,0,0,1,3.8-1.94V43c0,3.37,1.32,6.22,3.92,6.22,3,0,4.84-2.47,4.84-5.51a5.51,5.51,0,0,0-7.09-5.28,7.25,7.25,0,0,1,2-2.8c.21,0,.41,0,.62,0Zm56.47-8.55a3.1,3.1,0,0,1,2.11.82l-.78.79a2,2,0,1,0,0,3l.78.79a3.13,3.13,0,1,1-2.11-5.43Zm10.26.74a2.14,2.14,0,0,1,1.26-.72v1a2.68,2.68,0,0,1,1.89-1,1.91,1.91,0,0,1,1.94,1.14,2.74,2.74,0,0,1,2-1.14c1.63,0,2.17,1.08,2.17,2.5h0v2.77a2.09,2.09,0,0,1-1.46.75V29.56s-.06-1.21-1.06-1.21c-1.53,0-1.32,1.2-1.39,1.49v2.55a2.11,2.11,0,0,1-1.47.75V29.56s-.06-1.21-1.06-1.21a1.21,1.21,0,0,0-1.32,1.3v2.74a2.11,2.11,0,0,1-1.47.75V27.83Zm-4.06-.74a3.13,3.13,0,1,1-3.13,3.13,3.13,3.13,0,0,1,3.13-3.13Zm0,1.11a2,2,0,1,1-2,2,2,2,0,0,1,2-2ZM120.9,35.64a8.11,8.11,0,1,1-8.11,8.11V31.18a5.46,5.46,0,0,1,3.8-1.94V43c0,3.37,1.32,6.22,3.93,6.22,3,0,4.83-2.47,4.83-5.51a5.51,5.51,0,0,0-7.09-5.28,7.33,7.33,0,0,1,2-2.8c.2,0,.41,0,.62,0Zm17,1.91a5.46,5.46,0,0,1,3.81-1.94V49.92a5.5,5.5,0,0,1-3.81,1.94V37.55Zm1.9-8.19a1.91,1.91,0,1,1-1.9,1.91,1.9,1.9,0,0,1,1.9-1.91Zm-8.24-2.84a5.51,5.51,0,0,1,3.81-1.95V49.92a5.46,5.46,0,0,1-3.81,1.94V26.52Zm-24.86,11a5.46,5.46,0,0,1,3.8-1.94V49.92a5.46,5.46,0,0,1-3.8,1.94V37.55Zm1.9-8.19a1.91,1.91,0,1,1-1.91,1.91,1.91,1.91,0,0,1,1.91-1.91Zm-8.24-2.84a5.47,5.47,0,0,1,3.81-1.95V49.92a5.5,5.5,0,0,1-3.81,1.94V26.52Z"/><path class="cls-1" d="M81.59,62h2c1.34,0,1.9-.6,1.9-1.46a1.12,1.12,0,0,0-1-1.15,1,1,0,0,0,.71-1c0-.81-.58-1.36-1.77-1.36H81.59v5Zm2.73-1.5c0,.43-.28.64-.86.64H82.7V59.84h.76c.58,0,.86.22.86.64Zm-.19-2c0,.38-.26.58-.76.58H82.7V57.87h.67c.5,0,.76.17.76.56ZM86.31,57v5h1.14V57Zm2,2.49a2.4,2.4,0,0,0,2.49,2.57,2.52,2.52,0,0,0,2.05-.91V59.24H90.79v.82h1v.68a1.18,1.18,0,0,1-1,.38c-.76,0-1.37-.56-1.37-1.62s.6-1.63,1.29-1.63a1.24,1.24,0,0,1,1.15.66l.94-.46a2.32,2.32,0,0,0-2.13-1.14,2.36,2.36,0,0,0-2.39,2.57ZM131.58,62h2c1.34,0,1.9-.6,1.9-1.46a1.13,1.13,0,0,0-.95-1.15,1,1,0,0,0,.7-1c0-.81-.57-1.36-1.77-1.36h-1.85v5Zm2.73-1.5c0,.43-.27.64-.86.64h-.76V59.84h.76c.59,0,.86.22.86.64Zm-.18-2c0,.38-.26.58-.77.58h-.67V57.87h.67c.51,0,.77.17.77.56ZM136.3,57v5h1.14V57Zm2,2.49a2.41,2.41,0,0,0,2.5,2.57,2.51,2.51,0,0,0,2-.91V59.24h-2.08v.82h1v.68a1.15,1.15,0,0,1-.95.38c-.75,0-1.36-.56-1.36-1.62s.59-1.63,1.28-1.63a1.24,1.24,0,0,1,1.15.66l.95-.46a2.46,2.46,0,0,0-4.53,1.43Zm-42.57,0a2.32,2.32,0,0,0,2.31,2.57,2.22,2.22,0,0,0,1.94-1l-.51-.32a1.64,1.64,0,0,1-1.41.76c-1,0-1.69-.7-1.69-2s.73-2,1.69-2a1.64,1.64,0,0,1,1.41.76l.51-.32a2.21,2.21,0,0,0-1.94-1,2.31,2.31,0,0,0-2.31,2.57ZM100.89,62h.62V59.62h2.6V62h.63V57h-.63v2.05h-2.6V57h-.62v5Zm9.21-2.48a2.24,2.24,0,1,0-2.21,2.57,2.28,2.28,0,0,0,2.21-2.57Zm-3.8,0c0-1.23.62-2,1.59-2s1.57.78,1.57,2-.61,2-1.57,2-1.59-.78-1.59-2ZM111.06,57v5h.63V57Zm1.59,2.49A2.32,2.32,0,0,0,115,62.07a2.2,2.2,0,0,0,1.93-1l-.51-.32a1.61,1.61,0,0,1-1.4.76c-1,0-1.7-.7-1.7-2s.73-2,1.7-2a1.61,1.61,0,0,1,1.4.76l.51-.32a2.2,2.2,0,0,0-1.93-1,2.31,2.31,0,0,0-2.32,2.57ZM117.79,62H121v-.55h-2.53V59.69h2.22v-.55h-2.22V57.56h2.47V57h-3.1v5Zm5.75-.48a2,2,0,0,1-1.54-.69l-.47.4a2.62,2.62,0,0,0,2,.86c1.06,0,1.69-.58,1.69-1.4s-.54-1.25-1.77-1.58c-.75-.2-1.06-.52-1.06-.89s.31-.71.94-.71a1.74,1.74,0,0,1,1.25.58l.45-.38a2.27,2.27,0,0,0-1.71-.76c-1,0-1.57.53-1.57,1.27s.34,1.14,1.53,1.44c.94.25,1.31.49,1.31,1.07s-.41.79-1,.79ZM146,62h1.62a2.49,2.49,0,0,0,0-5H146v5Zm.62-.55V57.56h.95a1.94,1.94,0,0,1,0,3.87Zm4.28.55h3.16v-.55h-2.53V59.69h2.22v-.55h-2.22V57.56H154V57h-3.1v5Zm5.54-5-1.91,5h.68l.47-1.28h2.2l.47,1.28H159l-1.92-5Zm.34.65.91,2.48h-1.81l.9-2.48Zm3,4.32h3.09v-.55h-2.46V57h-.63v5Zm5.53-.48a2,2,0,0,1-1.54-.69l-.47.4a2.62,2.62,0,0,0,2,.86c1.07,0,1.7-.58,1.7-1.4s-.55-1.25-1.78-1.58c-.74-.2-1.06-.52-1.06-.89s.31-.71.94-.71a1.73,1.73,0,0,1,1.25.58l.46-.38a2.3,2.3,0,0,0-1.72-.76c-1,0-1.56.53-1.56,1.27s.33,1.14,1.52,1.44c.94.25,1.31.49,1.31,1.07s-.41.79-1.05.79Z"/></svg>