<svg id="Layer_1" data-name="Layer 1" xmlns="http://www.w3.org/2000/svg" xmlns:xlink="http://www.w3.org/1999/xlink" viewBox="0 0 217.45 84.36"><defs><style>.cls-1{fill:url(#linear-gradient);}.cls-2{fill:none;}.cls-3{clip-path:url(#clip-path);}.cls-4{fill:#000083;}.cls-5{clip-path:url(#clip-path-2);}.cls-6{fill:url(#linear-gradient-2);}.cls-7{clip-path:url(#clip-path-3);}.cls-8{mask:url(#mask);}.cls-9{fill:url(#linear-gradient-3);}.cls-10{clip-path:url(#clip-path-4);}.cls-11{fill:url(#linear-gradient-4);}</style><linearGradient id="linear-gradient" x1="-1948.82" y1="-272.9" x2="-1948.69" y2="-272.9" gradientTransform="translate(844520.06 118297.44) scale(433.33)" gradientUnits="userSpaceOnUse"><stop offset="0" stop-color="#fff"/><stop offset="1"/></linearGradient><clipPath id="clip-path"><rect class="cls-2" x="33.32" y="21.02" width="150.8" height="40"/></clipPath><clipPath id="clip-path-2"><path class="cls-2" d="M43.57,21.22c-1,.55-7.13,4.3-9,5.44l-.14.08a1.83,1.83,0,0,0-.82,1.56V45a1.73,1.73,0,0,0,1,1.38c.72.36,19.72,12.28,22.29,13.77a1.88,1.88,0,0,0,1,.25h0a1.91,1.91,0,0,0,1-.27c2.61-1.46,21.56-13.38,22.28-13.77a1.7,1.7,0,0,0,1-1.38V28.28a1.79,1.79,0,0,0-.86-1.54c-.32-.2-8-4.88-9.08-5.5a1.43,1.43,0,0,0-.73-.2,1.27,1.27,0,0,0-.69.18c-.09,0-8.32,5.23-9.61,5.91a6.55,6.55,0,0,1-3.3.8,6.66,6.66,0,0,1-3-.62C53.62,26.81,45,21.2,45,21.2a1.4,1.4,0,0,0-.7-.18,1.43,1.43,0,0,0-.73.2"/></clipPath><linearGradient id="linear-gradient-2" x1="-1946.62" y1="-274.25" x2="-1946.5" y2="-274.25" gradientTransform="translate(723863.96 102017.02) scale(371.84)" gradientUnits="userSpaceOnUse"><stop offset="0" stop-color="#ffb900"/><stop offset="0.34" stop-color="#f38000"/><stop offset="0.57" stop-color="#f83c72"/><stop offset="0.78" stop-color="#fc1cbe"/><stop offset="0.93" stop-color="#fe08ed"/><stop offset="1" stop-color="#f0f"/></linearGradient><clipPath id="clip-path-3"><path class="cls-2" d="M57.81,40.75V60.41h.09a1.9,1.9,0,0,0,1-.25c2.57-1.49,21.56-13.41,22.28-13.77a1.71,1.71,0,0,0,1-1.38V28.3a1.77,1.77,0,0,0-.19-.82Z"/></clipPath><mask id="mask" x="43.85" y="17.16" width="52.27" height="53.58" maskUnits="userSpaceOnUse"><rect class="cls-1" x="51.35" y="23.64" width="37.26" height="40.61" transform="translate(-12.53 39.4) rotate(-28.97)"/></mask><linearGradient id="linear-gradient-3" x1="-1948.82" y1="-272.9" x2="-1948.69" y2="-272.9" gradientTransform="translate(844520.12 118297.47) scale(433.33)" gradientUnits="userSpaceOnUse"><stop offset="0" stop-color="#ee0a3f"/><stop offset="1" stop-color="#ee0a3f"/></linearGradient><clipPath id="clip-path-4"><path class="cls-2" d="M33.63,28.4V44.94a1.65,1.65,0,0,0,1,1.36c.71.36,19.5,12.16,22,13.63a2.07,2.07,0,0,0,1,.25h.09V40.72L33.82,27.59a1.78,1.78,0,0,0-.19.81"/></clipPath><linearGradient id="linear-gradient-4" x1="-1959.85" y1="-278.92" x2="-1959.72" y2="-278.92" gradientTransform="matrix(0, -235.24, -235.24, 0, -65566.84, -460972.66)" gradientUnits="userSpaceOnUse"><stop offset="0" stop-color="#ed6600"/><stop offset="1" stop-color="#f98200"/></linearGradient></defs><g class="cls-3"><polygon class="cls-4" points="95.08 26.53 98.48 26.53 98.48 42.91 104.35 42.91 104.35 46.15 95.09 46.15 95.08 26.53"/><path class="cls-4" d="M112.24,31.44a5.77,5.77,0,0,1,4.63,2.23V31.74H120V46.18h-3.17V44.25a5.79,5.79,0,0,1-4.63,2.22c-4,0-7-3.38-7-7.52s3-7.51,7-7.51m.58,2.9A4.3,4.3,0,0,0,108.54,39a4.29,4.29,0,1,0,8.55,0,4.29,4.29,0,0,0-4.27-4.61"/><polygon class="cls-4" points="122.51 43.67 130.09 34.62 122.63 34.62 122.63 31.74 134.19 31.74 134.19 34.28 126.65 43.29 134.36 43.29 134.36 46.18 122.51 46.18 122.51 43.67"/><path class="cls-4" d="M142.44,31.44a5.77,5.77,0,0,1,4.63,2.23V31.74h3.17V46.18h-3.17V44.25a5.79,5.79,0,0,1-4.63,2.22c-4,0-7-3.38-7-7.52s3-7.51,7-7.51m.58,2.9A4.3,4.3,0,0,0,138.74,39a4.29,4.29,0,1,0,8.55,0A4.29,4.29,0,0,0,143,34.34"/><path class="cls-4" d="M159.32,31.44a5.76,5.76,0,0,1,4.62,2.23v-8.3h3.17V46.18h-3.17V44.25a5.78,5.78,0,0,1-4.62,2.22c-4,0-7-3.38-7-7.52s3-7.51,7-7.51m.58,2.9A4.3,4.3,0,0,0,155.62,39a4.29,4.29,0,1,0,8.55,0,4.29,4.29,0,0,0-4.27-4.61"/><path class="cls-4" d="M176.19,31.44a5.76,5.76,0,0,1,4.62,2.23V31.74H184V46.18h-3.19V44.25a5.75,5.75,0,0,1-4.61,2.22c-4,0-7-3.38-7-7.52s3-7.51,7-7.51m.58,2.9A4.3,4.3,0,0,0,172.49,39,4.29,4.29,0,1,0,181,39a4.29,4.29,0,0,0-4.27-4.61"/><g class="cls-5"><rect class="cls-6" x="33.48" y="20.83" width="48.84" height="39.77" transform="translate(-0.31 0.45) rotate(-0.44)"/></g><g class="cls-7"><g class="cls-8"><rect class="cls-9" x="51.35" y="23.64" width="37.26" height="40.61" transform="translate(-12.53 39.4) rotate(-28.97)"/></g></g><g class="cls-10"><rect class="cls-11" x="25.43" y="24.29" width="40.49" height="39.21" transform="translate(-17.16 51.93) rotate(-51.15)"/></g></g></svg>