<svg id="Layer_1" data-name="Layer 1" xmlns="http://www.w3.org/2000/svg" viewBox="0 0 217.45 84.36"><defs><style>.cls-1{fill:#95bf47;}.cls-2{fill:#5e8e3e;}.cls-3{fill:#fff;}.cls-4{fill:#231f20;}</style></defs><path class="cls-1" d="M68.08,28.19a.86.86,0,0,1,.49.17c-1.21.56-2.51,2-3.06,4.87l-2.31.71c.64-2.19,2.17-5.75,4.88-5.75Zm1.12,1.06a6.87,6.87,0,0,1,.39,2.55V32l-2.92.91c.56-2.17,1.61-3.22,2.53-3.62Zm2.79,2-1.41.44v-.31a6.89,6.89,0,0,0-.34-2.28c.84.1,1.39,1.05,1.75,2.15Zm6.79,1.66a.28.28,0,0,0-.26-.24l-2.36-.17s-1.56-1.55-1.73-1.73a.72.72,0,0,0-.64-.08l-.88.27c-.52-1.5-1.44-2.88-3.06-2.88h-.14a2,2,0,0,0-1.52-.87c-3.78,0-5.59,4.72-6.15,7.12l-2.65.82c-.82.26-.84.28-1,1.06-.08.58-2.22,17.16-2.22,17.16l16.7,3.13,9-2S78.8,33,78.78,32.88Z"/><path class="cls-2" d="M78.52,32.64l-2.36-.17s-1.56-1.55-1.73-1.73a.53.53,0,0,0-.24-.11L72.92,56.47l9-2S78.8,33,78.78,32.88a.28.28,0,0,0-.26-.24Z"/><path class="cls-3" d="M69.85,37.65,68.73,41a5.07,5.07,0,0,0-2.17-.53c-1.76,0-1.85,1.11-1.85,1.38,0,1.52,4,2.1,4,5.65,0,2.8-1.77,4.6-4.16,4.6a5.76,5.76,0,0,1-4.33-1.79l.76-2.53A5.51,5.51,0,0,0,63.71,49a1.11,1.11,0,0,0,1.17-1.13c0-2-3.24-2.07-3.24-5.32,0-2.73,2-5.38,5.93-5.38a4.88,4.88,0,0,1,2.28.44Z"/><path class="cls-4" d="M92.53,43.87c-.91-.49-1.37-.9-1.37-1.47s.64-1.19,1.65-1.19A5.92,5.92,0,0,1,95,41.7l.82-2.52a5.17,5.17,0,0,0-3-.6c-3.11,0-5.26,1.78-5.26,4.28A4,4,0,0,0,90,46.14c1.08.62,1.47,1.06,1.47,1.7s-.55,1.21-1.55,1.21A7,7,0,0,1,87,48.28l-.87,2.53a6.71,6.71,0,0,0,3.5.87c3.2,0,5.5-1.57,5.5-4.41,0-1.52-1.16-2.6-2.55-3.4Z"/><path class="cls-4" d="M105.27,38.56a4.8,4.8,0,0,0-3.77,1.88l0,0,1.37-7.14H99.26L95.8,51.45h3.56l1.19-6.21c.46-2.35,1.67-3.8,2.81-3.8.8,0,1.11.55,1.11,1.32a7.61,7.61,0,0,1-.16,1.57L103,51.45h3.56l1.39-7.35a12.76,12.76,0,0,0,.26-2.32c0-2-1.06-3.22-2.91-3.22Z"/><path class="cls-4" d="M114.48,49c-1.22,0-1.73-1-1.73-2.32,0-2,1-5.37,3-5.37,1.26,0,1.68,1.08,1.68,2.14,0,2.19-1.06,5.55-2.94,5.55Zm1.75-10.42c-4.28,0-7.12,3.87-7.12,8.17a4.65,4.65,0,0,0,4.9,5c4.2,0,7-3.77,7-8.18,0-2.55-1.49-5-4.82-5Z"/><path class="cls-4" d="M126.75,49a2.26,2.26,0,0,1-1.47-.52l.6-3.33c.41-2.21,1.57-3.68,2.81-3.68,1.08,0,1.42,1,1.42,2,0,2.29-1.37,5.57-3.36,5.57Zm3.41-10.47a4.87,4.87,0,0,0-3.77,2.11h0l.21-1.91H123.4c-.16,1.29-.44,3.25-.72,4.72l-2.48,13h3.56l1-5.26h.08a4.18,4.18,0,0,0,2.09.46c4.18,0,6.91-4.28,6.91-8.61,0-2.4-1.06-4.54-3.66-4.54Z"/><path class="cls-4" d="M138.9,33.45a2,2,0,0,0-2,2.06,1.64,1.64,0,0,0,1.68,1.78h.05a2,2,0,0,0,2.09-2.06,1.7,1.7,0,0,0-1.78-1.78Z"/><polygon class="cls-4" points="133.92 51.45 137.48 51.45 139.91 38.84 136.32 38.84 133.92 51.45 133.92 51.45"/><path class="cls-4" d="M149,38.81h-2.48l.13-.59c.21-1.21.93-2.29,2.12-2.29a3.7,3.7,0,0,1,1.13.18l.7-2.79a4.71,4.71,0,0,0-1.94-.31,5.28,5.28,0,0,0-3.48,1.19,6.72,6.72,0,0,0-2.06,4l-.1.59h-1.65l-.52,2.69h1.65l-1.88,10h3.56l1.88-10h2.45l.49-2.69Z"/><path class="cls-4" d="M157.52,38.84s-2.22,5.61-3.22,8.67h-.05c-.07-1-.88-8.67-.88-8.67h-3.74l2.14,11.58a.73.73,0,0,1-.08.59,5.94,5.94,0,0,1-1.93,2.14,7.88,7.88,0,0,1-2,1l1,3a8.16,8.16,0,0,0,3.48-1.94,23.88,23.88,0,0,0,4.67-7.06l4.36-9.34Z"/></svg>