<svg id="Layer_1" data-name="Layer 1" xmlns="http://www.w3.org/2000/svg" viewBox="0 0 217.45 84.36"><defs><style>.cls-1{fill:#f8210c;}</style></defs><path class="cls-1" d="M62.86,51.79c.41-3.39-1.77-5.56-7.54-7.4-2.8-1-4.11-2.2-4.08-3.92.11-1.91,1.89-3.3,4.24-3.34a9.55,9.55,0,0,1,5.21,1.6c.21.14.36.12.48-.06s.57-.9.7-1.12a.35.35,0,0,0-.12-.51,11.29,11.29,0,0,0-1.78-1,11.74,11.74,0,0,0-4.53-.93c-3.45,0-6.17,2.19-6.39,5.1-.15,2.1.89,3.81,3.12,5.11a37.86,37.86,0,0,0,4,1.61c3.21,1,4.87,2.79,4.48,4.87C60.34,53.73,58.35,55,55.61,55A9.88,9.88,0,0,1,50,52.84l-.26-.19a.32.32,0,0,0-.51.05c-.09.14-.68,1-.83,1.21s-.06.3.08.42a12.49,12.49,0,0,0,2.05,1.4A12.24,12.24,0,0,0,55.6,57a8.81,8.81,0,0,0,3.75-.64A5.65,5.65,0,0,0,62.86,51.79ZM55.74,21.88c-3.74,0-6.78,3.52-6.92,7.93H62.66C62.52,25.4,59.47,21.88,55.74,21.88ZM69.92,62.69H41.27a3.81,3.81,0,0,1-3.56-3.6l0-.35-1.28-28h0v-.07a.82.82,0,0,1,.82-.82h9c.22-5.82,4.4-10.46,9.53-10.46S65.05,24,65.27,29.81h9a.83.83,0,0,1,.83.82v.05h0l-1.4,28.15v.24A3.93,3.93,0,0,1,69.92,62.69ZM90.47,44c6.14,1.84,8.55,4.14,8.17,7.83a6.13,6.13,0,0,1-3.73,5.06,9.59,9.59,0,0,1-4,.76,13,13,0,0,1-5.45-1.3,13.84,13.84,0,0,1-2.21-1.45h0c-.32-.28-.36-.46-.14-.79l.41-.62.43-.65c.26-.4.54-.4.92-.13l.14.1.13.1A10,10,0,0,0,90.88,55c2.74-.08,4.67-1.31,5-3.14.34-2-1.32-3.72-4.56-4.67A37.12,37.12,0,0,1,87,45.56c-2.42-1.35-3.6-3.2-3.47-5.49.19-3.17,3.1-5.58,6.81-5.66a12.37,12.37,0,0,1,4.84.9,12.63,12.63,0,0,1,1.92,1c.42.3.42.5.22.88l-.42.61h0c-.3.42-.39.55-.41.59a.55.55,0,0,1-.87.16A9.35,9.35,0,0,0,90.44,37c-2.31.09-4,1.46-4.1,3.28C86.34,41.91,87.64,43.11,90.47,44Zm17.22-.92a6.84,6.84,0,0,1,6.85,6.73v7.24c0,.42-.11.51-.52.51H112.3c-.41,0-.51-.09-.51-.51V49.84a4.1,4.1,0,0,0-8.2,0v7.23c0,.36-.14.51-.52.51h-1.72c-.41,0-.52-.15-.52-.51V34.91c0-.38.11-.51.52-.51h1.72c.37,0,.52.14.52.51v9.53A6.9,6.9,0,0,1,107.69,43.09ZM124.14,55a4.6,4.6,0,1,0-4.69-4.6A4.65,4.65,0,0,0,124.14,55Zm0-11.86a7.27,7.27,0,1,1-7.42,7.26A7.34,7.34,0,0,1,124.15,43.11Zm45.79,5.58h8.22A4.5,4.5,0,0,0,174,45.76,4.19,4.19,0,0,0,169.94,48.69Zm10.25,2.66H169.78a4.46,4.46,0,0,0,2.44,3.1,5.89,5.89,0,0,0,1.07.39,6.39,6.39,0,0,0,5.61-1.33.57.57,0,0,1,.11-.1c.27-.24.46-.18.68.09,0,0,.3.42.85,1.29.23.36.21.54-.18,1l-.09.08L180,56a7.22,7.22,0,0,1-1.06.65,9.74,9.74,0,0,1-5.62.86l-.19,0h0l-.13,0a7.49,7.49,0,0,1-4.16-2.3h0a7,7,0,0,1-1.78-3.84h0v-.1a6.54,6.54,0,0,1-.06-.89,7,7,0,1,1,14.06,0v.12a.87.87,0,0,1-.81.87Zm-39.07,3.58a4.6,4.6,0,1,0-4.61-4.72v.24A4.61,4.61,0,0,0,141.12,54.93Zm0-11.86A7.27,7.27,0,1,1,136.51,56v8.53c0,.38-.1.52-.51.52h-1.64c-.41,0-.52-.14-.52-.52V43.59c0-.41.11-.52.52-.52H136c.41,0,.51.12.51.52v1.12A7.29,7.29,0,0,1,141.12,43.07Zm12.55,5.62h8.21a4.49,4.49,0,0,0-4.14-2.93A4.19,4.19,0,0,0,153.67,48.69Zm11.1,1.67v.12a.87.87,0,0,1-.81.87H153.5a4.5,4.5,0,0,0,2.45,3.1,5.63,5.63,0,0,0,1.07.39,6.36,6.36,0,0,0,5.6-1.33l.12-.1c.27-.24.46-.18.68.09,0,0,.3.42.85,1.29.23.36.21.54-.18,1l-.09.08-.27.22a7.8,7.8,0,0,1-1.06.65,9.74,9.74,0,0,1-5.62.86l-.19,0h0l-.13,0a7.55,7.55,0,0,1-4.17-2.3h0a7,7,0,0,1-1.78-3.84h0v-.1a8.69,8.69,0,0,1,0-.89,7,7,0,1,1,14.06,0Z"/></svg>