<svg id="Layer_1" data-name="Layer 1" xmlns="http://www.w3.org/2000/svg" viewBox="0 0 217.45 84.36"><defs><style>.cls-1{fill:#49b85b;}</style></defs><path class="cls-1" d="M114.36,49.29A8.6,8.6,0,0,1,108,52a10.17,10.17,0,0,1-5.39-1.4V46.47a9.2,9.2,0,0,0,4.83,1.83c3.58,0,5.71-2.46,5.71-5.95s-2.21-6-5.78-6a5,5,0,0,0-3.91,1.73,8,8,0,0,0-1.64,5.39V59.68h-.27A3.57,3.57,0,0,1,98,56.11V42.83c0-5.64,3.45-10.19,9.37-10.19a9.08,9.08,0,0,1,7.1,3A10.22,10.22,0,0,1,117,42.77a9,9,0,0,1-2.65,6.52Zm41.54-.14A8.84,8.84,0,0,1,149.13,52a9.06,9.06,0,0,1-7.07-3,10.32,10.32,0,0,1-2.53-7.11,9.06,9.06,0,0,1,9-9.22,10.76,10.76,0,0,1,5.4,1.36v4.16a9.16,9.16,0,0,0-4.84-1.84c-3.57,0-5.7,2.46-5.7,6s2.25,6,5.78,6a5,5,0,0,0,4-1.81,7.86,7.86,0,0,0,1.59-5.32V28.25a3.57,3.57,0,0,1,3.57-3.57h.26v17.1a10.4,10.4,0,0,1-2.63,7.37Zm10.84-18.34a2.16,2.16,0,0,1-1.69.66,2.2,2.2,0,0,1-2.26-2.28A2.15,2.15,0,0,1,165.05,27a2.2,2.2,0,0,1,2.26,2.24,2.33,2.33,0,0,1-.57,1.62Zm19.49,10.36a4.34,4.34,0,0,0-1.72-3.61,6.07,6.07,0,0,0-3.9-1.24c-3.47,0-5.7,2.72-5.7,6.07a5.71,5.71,0,0,0,5.66,5.91c2.3,0,3.53-1.35,4.84-3V50.1a10.79,10.79,0,0,1-2.22,1.37,7.76,7.76,0,0,1-3,.51c-5.52,0-9.16-4.57-9.16-9.86a9.25,9.25,0,0,1,2.54-6.71,9.41,9.41,0,0,1,7-2.77c5.49,0,9.41,3.15,9.41,8.84V51.6h-.27A3.56,3.56,0,0,1,186.23,48V41.17Zm-52.52-1.08a4.62,4.62,0,0,0-2.49-3c-3.33-1.86-6.6-.28-8.12,3l10.61,0Zm-2.93,11.84a10,10,0,0,1-7.2-1.2A9.45,9.45,0,0,1,119,45a9.83,9.83,0,0,1,6.75-12.11,9.43,9.43,0,0,1,7.28.92c3.83,2.15,5.23,5.47,5,9.74l-15.46,0a5.92,5.92,0,0,0,7.1,4.62,8.61,8.61,0,0,0,3.61-2.76l3.15,2.29a8,8,0,0,1-5.63,4.22ZM163.14,33H167V51.6h-.27A3.56,3.56,0,0,1,163.14,48V33Z"/><path class="cls-1" d="M33,51.6c-3.76,0-5.62-2.55-5.62-6.11V32A3.57,3.57,0,0,1,31,28.39h.27V33H37.7V36.7H31.22v9.21c0,1.57.7,2,2.19,2H37.7V51.6Zm22.28-2.35a9.83,9.83,0,0,1-13.6,0,9.17,9.17,0,0,1-2.85-6.94,9.67,9.67,0,0,1,16.43-6.92,9.17,9.17,0,0,1,2.87,6.92,9.21,9.21,0,0,1-2.85,6.94ZM73.22,37.49c-.56.94-1,1.62-1.31,2a5.65,5.65,0,0,1-1,1c2.67.86,3.66,2.7,3.66,5.46V51.6H74.3A3.56,3.56,0,0,1,70.73,48V46.4c0-1.78-.8-3-2.69-3H64.56V51.6h-.27A3.56,3.56,0,0,1,60.72,48V28.25a3.57,3.57,0,0,1,3.57-3.57h.27v15h1.13a2.67,2.67,0,0,0,2.54-1.23L71.45,33h4.37l-2.6,4.47ZM93,49.25a9.85,9.85,0,0,1-13.61,0,9.21,9.21,0,0,1-2.85-6.94A9.68,9.68,0,0,1,93,35.39a9.2,9.2,0,0,1,2.87,6.92A9.21,9.21,0,0,1,93,49.25ZM90.26,38a5.37,5.37,0,0,0-4.06-1.67c-3.53,0-5.64,2.58-5.64,6s2.16,6,5.64,6,5.65-2.62,5.65-6A6,6,0,0,0,90.26,38ZM52.51,38a5.35,5.35,0,0,0-4-1.67c-3.53,0-5.65,2.58-5.65,6s2.17,6,5.65,6,5.64-2.62,5.64-6A6,6,0,0,0,52.51,38Z"/></svg>